<mxfile host="app.diagrams.net" modified="2023-04-19T10:14:56.150Z" agent="Mozilla/5.0 (Windows NT 10.0; Win64; x64) AppleWebKit/537.36 (KHTML, like Gecko) Chrome/112.0.0.0 Safari/537.36 Edg/112.0.1722.48" version="21.1.8" etag="EhJh93shtnQkbAkSykgC" type="github">
  <diagram name="第 1 页" id="XbEsiRBUHUmf1A9M-WZ4">
    <mxGraphModel>
      <root>
        <mxCell id="0" />
        <mxCell id="1" parent="0" />
        <mxCell id="2" value="User" style="shape=umlLifeline;perimeter=lifelinePerimeter;whiteSpace=wrap;container=1;dropTarget=0;collapsible=0;recursiveResize=0;outlineConnect=0;portConstraint=eastwest;newEdgeStyle={&quot;edgeStyle&quot;:&quot;elbowEdgeStyle&quot;,&quot;elbow&quot;:&quot;vertical&quot;,&quot;curved&quot;:0,&quot;rounded&quot;:0};size=65;" vertex="1" parent="1">
          <mxGeometry width="150" height="898" as="geometry" />
        </mxCell>
        <mxCell id="3" value="Frontend" style="shape=umlLifeline;perimeter=lifelinePerimeter;whiteSpace=wrap;container=1;dropTarget=0;collapsible=0;recursiveResize=0;outlineConnect=0;portConstraint=eastwest;newEdgeStyle={&quot;edgeStyle&quot;:&quot;elbowEdgeStyle&quot;,&quot;elbow&quot;:&quot;vertical&quot;,&quot;curved&quot;:0,&quot;rounded&quot;:0};size=65;" vertex="1" parent="1">
          <mxGeometry x="388" width="150" height="898" as="geometry" />
        </mxCell>
        <mxCell id="5" value="" style="points=[];perimeter=orthogonalPerimeter;outlineConnect=0;targetShapes=umlLifeline;portConstraint=eastwest;newEdgeStyle={&quot;edgeStyle&quot;:&quot;elbowEdgeStyle&quot;,&quot;elbow&quot;:&quot;vertical&quot;,&quot;curved&quot;:0,&quot;rounded&quot;:0}" vertex="1" parent="3">
          <mxGeometry x="70" y="109" width="10" height="340" as="geometry" />
        </mxCell>
        <mxCell id="6" value="" style="points=[];perimeter=orthogonalPerimeter;outlineConnect=0;targetShapes=umlLifeline;portConstraint=eastwest;newEdgeStyle={&quot;edgeStyle&quot;:&quot;elbowEdgeStyle&quot;,&quot;elbow&quot;:&quot;vertical&quot;,&quot;curved&quot;:0,&quot;rounded&quot;:0}" vertex="1" parent="3">
          <mxGeometry x="70" y="439" width="10" height="364" as="geometry" />
        </mxCell>
        <mxCell id="4" value="Backend" style="shape=umlLifeline;perimeter=lifelinePerimeter;whiteSpace=wrap;container=1;dropTarget=0;collapsible=0;recursiveResize=0;outlineConnect=0;portConstraint=eastwest;newEdgeStyle={&quot;edgeStyle&quot;:&quot;elbowEdgeStyle&quot;,&quot;elbow&quot;:&quot;vertical&quot;,&quot;curved&quot;:0,&quot;rounded&quot;:0};size=65;" vertex="1" parent="1">
          <mxGeometry x="648" width="150" height="898" as="geometry" />
        </mxCell>
        <mxCell id="7" value="" style="points=[];perimeter=orthogonalPerimeter;outlineConnect=0;targetShapes=umlLifeline;portConstraint=eastwest;newEdgeStyle={&quot;edgeStyle&quot;:&quot;elbowEdgeStyle&quot;,&quot;elbow&quot;:&quot;vertical&quot;,&quot;curved&quot;:0,&quot;rounded&quot;:0}" vertex="1" parent="4">
          <mxGeometry x="70" y="493" width="10" height="54" as="geometry" />
        </mxCell>
        <mxCell id="8" value="" style="points=[];perimeter=orthogonalPerimeter;outlineConnect=0;targetShapes=umlLifeline;portConstraint=eastwest;newEdgeStyle={&quot;edgeStyle&quot;:&quot;elbowEdgeStyle&quot;,&quot;elbow&quot;:&quot;vertical&quot;,&quot;curved&quot;:0,&quot;rounded&quot;:0}" vertex="1" parent="4">
          <mxGeometry x="70" y="601" width="10" height="138" as="geometry" />
        </mxCell>
        <mxCell id="9" value="Clicks &quot;Publish Info&quot; button" style="verticalAlign=bottom;endArrow=block;edgeStyle=elbowEdgeStyle;elbow=vertical;curved=0;rounded=0;" edge="1" parent="1" source="2" target="5">
          <mxGeometry relative="1" as="geometry">
            <Array as="points">
              <mxPoint x="279" y="109" />
            </Array>
          </mxGeometry>
        </mxCell>
        <mxCell id="10" value="Popup &quot;Publish Info&quot; modal" style="curved=1;" edge="1" parent="1" source="5" target="5">
          <mxGeometry relative="1" as="geometry">
            <Array as="points">
              <mxPoint x="518" y="163" />
              <mxPoint x="518" y="193" />
            </Array>
          </mxGeometry>
        </mxCell>
        <mxCell id="11" value="Displays modal with form" style="verticalAlign=bottom;endArrow=block;edgeStyle=elbowEdgeStyle;elbow=vertical;curved=0;rounded=0;" edge="1" parent="1" source="5" target="2">
          <mxGeometry relative="1" as="geometry">
            <Array as="points">
              <mxPoint x="277" y="247" />
            </Array>
          </mxGeometry>
        </mxCell>
        <mxCell id="12" value="Fills in pet type, info type, pet image, address" style="verticalAlign=bottom;endArrow=block;edgeStyle=elbowEdgeStyle;elbow=vertical;curved=0;rounded=0;" edge="1" parent="1" source="2" target="5">
          <mxGeometry relative="1" as="geometry">
            <Array as="points">
              <mxPoint x="277" y="301" />
            </Array>
          </mxGeometry>
        </mxCell>
        <mxCell id="13" value="Waits for user confirmation" style="curved=1;" edge="1" parent="1" source="5" target="5">
          <mxGeometry relative="1" as="geometry">
            <Array as="points">
              <mxPoint x="518" y="355" />
              <mxPoint x="518" y="385" />
            </Array>
          </mxGeometry>
        </mxCell>
        <mxCell id="14" value="Clicks &quot;Confirm&quot;" style="verticalAlign=bottom;endArrow=block;edgeStyle=elbowEdgeStyle;elbow=vertical;curved=0;rounded=0;" edge="1" parent="1" source="2" target="5">
          <mxGeometry relative="1" as="geometry">
            <Array as="points">
              <mxPoint x="277" y="439" />
            </Array>
          </mxGeometry>
        </mxCell>
        <mxCell id="15" value="Send pet image" style="verticalAlign=bottom;endArrow=block;edgeStyle=elbowEdgeStyle;elbow=vertical;curved=0;rounded=0;" edge="1" parent="1" source="6" target="7">
          <mxGeometry relative="1" as="geometry">
            <Array as="points">
              <mxPoint x="606" y="493" />
            </Array>
          </mxGeometry>
        </mxCell>
        <mxCell id="16" value="Returns saved image name" style="verticalAlign=bottom;endArrow=block;edgeStyle=elbowEdgeStyle;elbow=vertical;curved=0;rounded=0;dashed=1;dashPattern=2 3;" edge="1" parent="1" source="7" target="6">
          <mxGeometry relative="1" as="geometry">
            <Array as="points">
              <mxPoint x="603" y="547" />
            </Array>
          </mxGeometry>
        </mxCell>
        <mxCell id="17" value="Send pet info" style="verticalAlign=bottom;endArrow=block;edgeStyle=elbowEdgeStyle;elbow=vertical;curved=0;rounded=0;" edge="1" parent="1" source="6" target="8">
          <mxGeometry relative="1" as="geometry">
            <Array as="points">
              <mxPoint x="606" y="601" />
            </Array>
          </mxGeometry>
        </mxCell>
        <mxCell id="18" value="Stores pet info" style="curved=1;" edge="1" parent="1" source="8" target="8">
          <mxGeometry relative="1" as="geometry">
            <Array as="points">
              <mxPoint x="778" y="655" />
              <mxPoint x="778" y="685" />
            </Array>
          </mxGeometry>
        </mxCell>
        <mxCell id="19" value="Returns saved pet info" style="verticalAlign=bottom;endArrow=block;edgeStyle=elbowEdgeStyle;elbow=vertical;curved=0;rounded=0;dashed=1;dashPattern=2 3;" edge="1" parent="1" source="8" target="6">
          <mxGeometry relative="1" as="geometry">
            <Array as="points">
              <mxPoint x="603" y="739" />
            </Array>
          </mxGeometry>
        </mxCell>
        <mxCell id="20" value="Displays success message" style="verticalAlign=bottom;endArrow=block;edgeStyle=elbowEdgeStyle;elbow=vertical;curved=0;rounded=0;" edge="1" parent="1" source="6" target="2">
          <mxGeometry relative="1" as="geometry">
            <Array as="points">
              <mxPoint x="277" y="793" />
            </Array>
          </mxGeometry>
        </mxCell>
      </root>
    </mxGraphModel>
  </diagram>
</mxfile>
